<?xml version="1.0" encoding="utf-8"?>
<!-- Generator: Adobe Illustrator 24.0.1, SVG Export Plug-In . SVG Version: 6.00 Build 0)  -->
<svg version="1.1" id="Layer_1" xmlns="http://www.w3.org/2000/svg" xmlns:xlink="http://www.w3.org/1999/xlink" x="0px" y="0px"
	 viewBox="0 0 350 350" style="enable-background:new 0 0 350 350;" xml:space="preserve">
<g id="UhI4ZJ.tif">
	<g>
		<path d="M110,55.5c4,0,8,0,12,0c5.5,0.1,10.4-1.6,14.6-5.2c6.6-5.6,13.3-11.1,20-16.7c11.1-9.3,25.6-9.4,36.8-0.1
			c6.7,5.6,13.5,11.2,20.1,16.8c4.2,3.6,9,5.2,14.4,5.2c8.1,0,16.2,0.2,24.3,0c17.1-0.4,28.6,10.9,30.7,26.6
			c1.1,8.3,2.7,16.6,4.3,24.9c0.8,4.3,3,7.9,6.4,10.7c7.1,5.9,14.2,11.8,21.1,17.9c11.1,9.8,13.3,23.8,5.9,36.6
			c-4.1,7.2-8.2,14.5-12.5,21.6c-3.3,5.4-3.9,11.1-2.8,17.2c1.6,8.7,3.3,17.3,4.6,26.1c1.9,12.2-5.6,24.8-18,29.8
			c-7.9,3.2-15.9,6-23.9,8.7c-6,2.1-10.5,5.7-13.6,11.3c-4,7.2-8.2,14.3-12.3,21.5c-5.8,10.1-14.7,15.3-26.3,14.8
			c-4.8-0.2-9.6-2.2-14.3-3.8c-6.2-2.1-12.3-4.4-18.4-6.8c-5.8-2.3-11.5-1.8-17.2,0.3c-8.5,3.2-16.9,6.5-25.6,9.2
			c-11.6,3.7-24.4-1-30.9-11.3c-4.9-7.8-9.4-15.9-13.9-23.9c-2.9-5.2-7-8.8-12.8-10.8c-8.4-2.9-16.8-6-25.1-9.2
			c-12.8-5-19.8-17.8-17.4-31.4c1.6-9.3,3.2-18.7,4.8-28c0.7-4.1-0.1-8-2.1-11.6c-4.5-7.9-9-15.7-13.5-23.6
			c-6.1-10.7-6.2-21.5,1.1-31.5c3.2-4.3,7.8-7.6,11.9-11.3c4-3.5,8-7,12.2-10.3c5.5-4.3,8-10.1,9.1-16.8c1.3-8.6,2.5-17.2,4.5-25.6
			c2.9-12,13.4-21.3,28-21.3C100.8,55.5,105.4,55.5,110,55.5z M175.1,94.1c-45.7,0.1-80.4,36.8-81.7,78.1
			c-1.6,50.4,38.8,85.6,81.4,85.5c44.9-0.1,82.1-36.7,81.8-81.8C256.3,129.3,219.2,94.2,175.1,94.1z"/>
		<path d="M159.8,177.4c6-6,11.4-11.5,16.9-17c6.9-6.9,13.9-13.9,20.8-20.8c6.4-6.4,16.5-6.8,22.8-0.9c6.9,6.4,7.6,16.4,1.4,23.3
			c-5.4,5.9-11.2,11.4-16.9,17.1c-10.8,10.9-21.7,21.8-32.5,32.7c-7.2,7.2-17,7.3-24.2,0.2c-6.3-6.2-12.5-12.4-18.7-18.7
			c-6.9-7-6.7-17.4,0.3-24.3c6.1-5.9,16.5-5.6,23,0.9C155.1,172.2,157.4,174.7,159.8,177.4z"/>
	</g>
</g>
</svg>
