<?xml version="1.0" encoding="utf-8"?>
<!-- Generator: Adobe Illustrator 24.0.1, SVG Export Plug-In . SVG Version: 6.00 Build 0)  -->
<svg version="1.1" id="Layer_1" xmlns="http://www.w3.org/2000/svg" xmlns:xlink="http://www.w3.org/1999/xlink" x="0px" y="0px"
	 viewBox="0 0 350 350" style="enable-background:new 0 0 350 350;" xml:space="preserve">
<g id="fGgNDp.tif">
	<g>
		<path d="M324.6,127.5c0-3.6-0.5-7.3-1.5-10.7c-1.5-5.5-4.5-10.2-8.6-14.2c-18.2-18.1-36.3-36.3-54.4-54.4
			c-5.2-5.2-10.4-10.3-15.7-15.4c-3.3-3.2-7.4-5.2-11.7-6.4c-3.5-1-7.4-1.4-11.1-1.4c-30-0.1-59.9,0-89.9,0c-3.1,0-6.2,0.2-9.3,0.4
			c-5.6,0.3-10.7,2.4-15,5.9c-4.9,4.1-9.4,8.7-13.9,13.2c-19.4,19.4-38.7,38.8-58.1,58.2c-6.6,6.7-10.1,14.7-10.1,24.1
			c0,32-0.1,64.1,0,96.1c0,8.3,2.4,15.9,8.1,22.1c2.9,3.2,6,6.3,9.1,9.4c16.3,16.3,32.6,32.7,49,49.1c4.3,4.3,8.6,8.7,13.1,12.9
			c6.4,6,14.1,8.7,22.9,8.6c15.8-0.1,31.6,0,47.4,0c16.2,0,32.4,0,48.5-0.1c8,0,15.2-2.6,21.1-7.9c5.1-4.6,9.8-9.5,14.7-14.4
			c18.4-18.3,36.8-36.7,55.1-55.1c6.9-6.9,10.4-15.2,10.4-25C324.7,190.9,324.7,159.2,324.6,127.5z M295.6,235
			c-20.8,20.6-41.4,41.4-62.1,62.1c-4,3.9-8.8,5.9-14.4,5.9h-88.4c-5.5,0-10.2-1.9-14.2-5.9c-21.1-21.3-42.3-42.5-63.5-63.7
			c-3.8-3.8-5.6-8.3-5.6-13.6v-90c0-5.3,2.1-9.6,5.8-13.3c14.3-14.4,28.7-28.7,43-43.1c7.1-7.2,14.3-14.4,21.4-21.5
			c3.2-3.2,7.1-4.8,11.5-4.8c15.3-0.1,30.7,0,46,0c15.1,0,30.2,0,45.1,0.3c4.9,0,9.1,1.8,12.5,5.2c19.8,19.8,39.6,39.7,59.4,59.5
			c1.6,1.6,3.1,3.1,4.7,4.7c3.9,3.8,5.7,8.4,5.7,13.8v35.5c0,17.2-0.1,34.5,0.1,51.8C302.7,224.7,300.4,230.2,295.6,235z"/>
		<path d="M302.5,166.1v-35.5c0-5.4-1.8-10-5.7-13.8c-1.6-1.6-3.1-3.1-4.7-4.7c-19.8-19.8-39.6-39.7-59.4-59.5
			c-3.4-3.4-7.6-5.2-12.5-5.2c-14.9-0.3-30-0.3-45.1-0.3c-15.3,0-30.7-0.1-46,0c-4.4,0-8.3,1.6-11.5,4.8
			c-7.1,7.1-14.3,14.3-21.4,21.5c-14.3,14.4-28.7,28.7-43,43.1c-3.7,3.7-5.8,8-5.8,13.3v90c0,5.3,1.8,9.8,5.6,13.6
			c21.2,21.2,42.4,42.4,63.5,63.7c4,4,8.7,5.9,14.2,5.9h88.4c5.6,0,10.4-2,14.4-5.9c20.7-20.7,41.3-41.5,62.1-62.1
			c4.8-4.8,7.1-10.3,7-17.1C302.4,200.6,302.5,183.3,302.5,166.1z M248.6,165.9c-0.5,2.4-1.7,4.7-2.5,7.1c-1.4,4-2.8,7.9-4.2,11.9
			c-1.7,4.7-3.3,9.3-5,14c-1.4,3.9-2.8,7.7-4.2,11.6c-1.4,4-2.8,7.9-4.2,11.9c-1.2,3.5-2.4,6.9-3.6,10.4
			c-3.4,9.2-7.2,18.3-13.7,25.8c-3.9,4.4-8.5,7.8-13.7,10.5c-5.5,2.8-11.3,4.4-17.4,5.6c-7.4,1.4-14.8,1.1-22.1-0.2
			c-5.8-1-11.1-3.3-16-6.4c-8.3-5.1-14.5-12.1-18.3-21c-1.8-4.2-3.1-8.6-4-13.1c-2.6-12-3-24.2-3.3-36.4
			c-0.4-17.5-0.5-35.1-0.7-52.7c-0.1-9.4,0-18.8,0-28.1c0-5.6,5.3-9.6,10.5-9.1c3.3,0.4,6.2,1.3,8.3,4.2c1.3,1.9,1.6,4,1.6,6.2v46.8
			c0,0.6,0,1.3,0.1,1.9c0.1,0.8,0.7,1.5,1.5,1.2c0.5-0.2,1.1-0.7,1.3-1.3s0.1-1.3,0.1-1.9V96.2c0-3.1,0.5-6.1,2.9-8.3
			c3.2-2.9,6.7-3.4,10.9-2.1c3.1,1,5.3,2.8,6.2,6c0.3,1.2,0.4,2.6,0.4,3.8v71c0.1,0.9,0.6,1.4,1.6,1.4s1.4-0.5,1.4-1.5V85.3
			c0-2.4,0.4-4.6,1.7-6.6c1.8-2.7,4.3-4.1,7.4-4.3c4.3-0.3,8.2,0.9,10.4,5c0.8,1.5,1.2,3.3,1.2,5c0.1,20.8,0.1,41.6,0.1,62.4V166
			c0,1,0.2,1.9,1.5,1.9c0.9,0,1.5-0.4,1.6-1.4V98c0-3.4,1.1-6.3,3.8-8.4c4.4-3.4,11.7-2.5,14.9,1.9c1.4,2,1.9,4.3,1.9,6.7
			c0.1,16.1,0.1,31.8,0.1,47.6v47.7c0,0.7,0.3,2.1,0.6,2.1c1.2,0.2,1-1,1.3-1.8c2.6-7,5.1-14.1,7.6-21.1c1.8-4.9,3.4-9.8,5.3-14.6
			c1.8-4.4,5-7.2,9.6-8.8C240.4,146.3,251.1,154.6,248.6,165.9z"/>
	</g>
</g>
</svg>
