<?xml version="1.0" encoding="utf-8"?>
<!-- Generator: Adobe Illustrator 24.0.1, SVG Export Plug-In . SVG Version: 6.00 Build 0)  -->
<svg version="1.1" id="Layer_1" xmlns="http://www.w3.org/2000/svg" xmlns:xlink="http://www.w3.org/1999/xlink" x="0px" y="0px"
	 viewBox="0 0 350 350" style="enable-background:new 0 0 350 350;" xml:space="preserve">
<g id="c4mS7u.tif">
	<g>
		<path d="M69.7,324.8c-9.2,0-18.3,0-27.5,0c-6.7,0-11.7-2.7-14.9-8.7c-1.3-2.4-1.8-5.1-1.8-7.8c0-13.4-0.1-26.8-0.1-40.2
			c0-3.6,0.1-7.2,0-10.8c-0.4-14.4,5-26.4,15.1-36.5c37-37.1,74-74.2,111-111.3c23.5-23.5,46.9-47,70.3-70.6
			c5.4-5.5,11.8-9.2,19.1-11.7c6.7-2.2,13.5-2.8,20.4-1.9c11.1,1.4,20.4,6.4,28.2,14.4c8,8.2,16.1,16.1,24,24.4
			c3.7,3.9,6.2,8.8,8.1,13.9c2.5,6.5,3.3,13.2,2.8,20.1c-0.3,4.4-1.3,8.7-2.8,12.8c-2,5.3-4.7,10.2-8.5,14.4c-3,3.3-6.2,6.5-9.4,9.6
			c-29.6,29.7-59.3,59.4-88.9,89.1c-22.4,22.5-44.9,45-67.3,67.5c-7.2,7.3-14.4,14.6-21.9,21.6c-4.7,4.4-10.3,7.5-16.5,9.4
			c-5.2,1.6-10.6,2.3-16,2.3c-7.8-0.1-15.7,0-23.5,0C69.7,324.9,69.7,324.9,69.7,324.8z"/>
	</g>
</g>
</svg>
