<?xml version="1.0" encoding="utf-8"?>
<!-- Generator: Adobe Illustrator 24.0.1, SVG Export Plug-In . SVG Version: 6.00 Build 0)  -->
<svg version="1.1" id="Layer_1" xmlns="http://www.w3.org/2000/svg" xmlns:xlink="http://www.w3.org/1999/xlink" x="0px" y="0px"
	 viewBox="0 0 350 350" style="enable-background:new 0 0 350 350;" xml:space="preserve">
<g id="HT955Q.tif">
	<g>
		<path d="M25.2,175c0-17,0-34,0-51c0-5.9,1.4-11.3,5.1-15.8c2.3-2.8,5-5.3,7.5-7.9c22.5-22.6,45.1-45.1,67.6-67.8
			c5-5,11-7.5,17.9-7.6c34.5-0.1,68.9-0.1,103.4,0c6.9,0,12.8,2.5,17.7,7.4c24.4,24.4,48.8,48.9,73.2,73.3c5,5,7.1,11,7.1,17.9
			c0,20.5,0,41.1,0,61.6c0,13.6,0,27.2,0,40.9c0,7.3-2.5,13.4-7.6,18.6c-24.2,24.2-48.4,48.5-72.6,72.7c-4.9,5-10.9,7.5-17.9,7.5
			c-34.4,0-68.8,0-103.1,0c-7,0-13-2.5-17.9-7.5c-24.4-24.4-48.7-48.8-73.1-73.2c-4.8-4.8-7.1-10.5-7.1-17.2
			C25.2,209.7,25.2,192.4,25.2,175C25.2,175,25.2,175,25.2,175z M175,151.5c-30.4,0-60.9,0-91.3,0c-2.2,0-2.2,0-2.2,2.1
			c0,14.3,0,28.5,0,42.8c0,2.1,0,2.1,2.2,2.1c60.9,0,121.9,0,182.8,0c2.1,0,2.1,0,2.1-2.2c0-14.1,0-28.2,0-42.4c0-2.5,0-2.5-2.4-2.5
			C235.7,151.5,205.4,151.5,175,151.5z"/>
	</g>
</g>
</svg>
