<?xml version="1.0" encoding="utf-8"?>
<svg version="1.1" xmlns="http://www.w3.org/2000/svg" viewBox="0 0 350 350">
<path d="M304,175.4c0,37.2,0,74.4,0,111.6c0,4.1-0.3,8.2-1.6,12.2c-2,6-5.1,11.2-9.7,15.5c-4.3,4-9.2,7-14.8,8.6
	c-3,0.9-6.1,1.5-9.2,1.5C206.6,325,144.4,325,82.3,325c-10.9,0-20.1-3.8-27.5-11.9c-3.9-4.4-6.7-9.4-7.8-15.3
	c-0.5-2.4-0.6-4.9-1-7.4c-0.2-1.2,0.3-1.7,1.6-1.7c5.8,0,11.6,0,17.5,0c1.2,0,1.5,0.5,1.7,1.6c0.3,2.8,1,5.4,2.6,7.7
	c2.9,4,6.9,5.8,11.8,6.2c0.6,0,1.3,0,1.9,0c61.1,0,122.3,0,183.4,0c6.7,0,11.9-2.9,15.2-8.8c1-1.8,1.2-4.1,1.6-6.2
	c0.2-0.7,0.1-1.5,0.1-2.2c0-74.5,0-149.1,0-223.6c0-4.1-0.8-7.8-3.4-11.1c-3.2-4-7.4-6-12.5-6.2c-2.4-0.1-4.8,0-7.1,0
	c-42.6,0-85.2,0-127.8,0c-0.5,0-1.1,0-1.6,0c-1.4-0.1-1.9,0.5-1.9,1.9c0.1,9.6,0,19.2,0,28.7c0,1.8,0,3.6-0.1,5.4
	c-0.6,9.7-5.3,17-13.3,22.2c-4.3,2.8-9.1,4.1-14.3,4.1c-10.8,0-21.6,0-32.4,0c-2.2,0-2.2,0-2.2,2.2c0,20.7,0,41.4,0,62.1
	c0,2.3,0,2.3-2.4,2.4c-5.5,0-10.9,0-16.4,0c-1.4,0-2-0.4-1.9-1.9c0-24.9,0-49.9,0-74.8c0-3.3,1.3-6,3.6-8.3
	c17.6-17.6,35.1-35.2,52.7-52.9c2.8-2.8,5.6-5.6,8.4-8.4c2.5-2.5,5.3-3.7,8.9-3.7c48.2,0,96.3,0,144.5,0c10.3,0,19.7,2.8,27.6,9.7
	c4.5,3.9,7.7,8.7,9.8,14.2c2,5,2.5,10.2,2.5,15.5C304,101.4,304,138.4,304,175.4z"/>
<g>
	<path d="M46,201.1h13l3.9,26.3c0.7,5.9,1.6,11.9,2.3,17.8h0.3c1.1-5.9,2.2-11.9,3.4-17.8l6.1-26.3h10.8l6.1,26.3
		c1.1,5.7,2.3,11.8,3.4,17.8h0.3c0.7-6,1.5-12,2.3-17.8l3.9-26.3H114l-10,56.3H88l-5.5-25.6c-0.9-4.3-1.6-8.9-2.3-13.1h-0.3
		c-0.7,4.2-1.4,8.7-2.3,13.1l-5.3,25.6H56.4L46,201.1z"/>
	<path d="M116.1,229c0-18.4,10.4-28.9,25.6-28.9s25.6,10.6,25.6,28.9c0,18.4-10.4,29.4-25.6,29.4C126.5,258.4,116.1,247.4,116.1,229
		z M154.2,229c0-11.3-4.8-18-12.5-18s-12.5,6.7-12.5,18s4.8,18.4,12.5,18.4C149.3,247.5,154.2,240.3,154.2,229z"/>
	<path d="M175.1,201.1h20.3c11.9,0,21.7,4.1,21.7,17.5c0,12.9-9.8,18.5-21.7,18.5h-7.5v20.3h-12.7v-56.3H175.1z M194.3,227
		c6.7,0,10.3-2.9,10.3-8.4c0-5.6-3.6-7.4-10.3-7.4h-6.5V227H194.3z M193,233.8l8.8-8.1l18,31.8h-14.2L193,233.8z"/>
	<path d="M225.2,201.1h15.9c17.2,0,28.3,8.6,28.3,27.9s-11.1,28.4-27.6,28.4h-16.6L225.2,201.1L225.2,201.1z M240.4,247.2
		c9.5,0,16-4.7,16-18.1s-6.5-17.7-16-17.7H238v35.8H240.4z"/>
</g>
</svg>
