<?xml version="1.0" encoding="utf-8"?>
<svg version="1.1" xmlns="http://www.w3.org/2000/svg" viewBox="0 0 350 350">
<g>
	<g>
		<path d="M304,175.4c0,37.2,0,74.4,0,111.6c0,4.1-0.3,8.2-1.6,12.2c-2,6-5.1,11.2-9.7,15.5c-4.3,4-9.2,7-14.8,8.6
			c-3,0.9-6.1,1.5-9.2,1.5C206.6,325,144.4,325,82.3,325c-10.9,0-20.1-3.8-27.5-11.9c-3.9-4.4-6.7-9.4-7.8-15.3
			c-0.5-2.4-0.6-4.9-1-7.4c-0.2-1.2,0.3-1.7,1.6-1.7c5.8,0,11.6,0,17.5,0c1.2,0,1.5,0.5,1.7,1.6c0.3,2.8,1,5.4,2.6,7.7
			c2.9,4,6.9,5.8,11.8,6.2c0.6,0,1.3,0,1.9,0c61.1,0,122.3,0,183.4,0c6.7,0,11.9-2.9,15.2-8.8c1-1.8,1.2-4.1,1.6-6.2
			c0.2-0.7,0.1-1.5,0.1-2.2c0-74.5,0-149.1,0-223.6c0-4.1-0.8-7.8-3.4-11.1c-3.2-4-7.4-6-12.5-6.2c-2.4-0.1-4.8,0-7.1,0
			c-42.6,0-85.2,0-127.8,0c-0.5,0-1.1,0-1.6,0c-1.4-0.1-1.9,0.5-1.9,1.9c0.1,9.6,0,19.2,0,28.7c0,1.8,0,3.6-0.1,5.4
			c-0.6,9.7-5.3,17-13.3,22.2c-4.3,2.8-9.1,4.1-14.3,4.1c-10.8,0-21.6,0-32.4,0c-2.2,0-2.2,0-2.2,2.2c0,20.7,0,41.4,0,62.1
			c0,2.3,0,2.3-2.4,2.4c-5.5,0-10.9,0-16.4,0c-1.4,0-2-0.4-1.9-1.9c0-24.9,0-49.9,0-74.8c0-3.3,1.3-6,3.6-8.3
			c17.6-17.6,35.1-35.2,52.7-52.9c2.8-2.8,5.6-5.6,8.4-8.4c2.5-2.5,5.3-3.7,8.9-3.7c48.2,0,96.3,0,144.5,0c10.3,0,19.7,2.8,27.6,9.7
			c4.5,3.9,7.7,8.7,9.8,14.2c2,5,2.5,10.2,2.5,15.5C304,101.4,304,138.4,304,175.4z"/>
		<path d="M105.3,232.5c0-10.3,0-20.5,0-30.8c0-2.2,0.1-2.4,2.3-2.3c9.5,0.1,19-0.3,28.4,0.6c11.9,1.1,21,7.1,25.9,18.6
			c2.8,6.7,3.4,13.8,2.1,20.8c-1.9,10.2-7.5,17.9-16.9,22.5c-4.4,2.1-9.2,3.3-14.1,3.4c-8.7,0.2-17.4,0.1-26,0.1
			c-1.4,0-1.7-0.6-1.7-1.8C105.3,253.3,105.3,242.9,105.3,232.5z M121.5,232.5c0,5.8,0,11.6,0,17.5c0,0.8-0.1,1.7,1.1,1.6
			c3.3-0.1,6.6,0,9.8-0.3c5-0.5,9.5-2.5,12.3-6.8c4.6-7,4.4-14.4,1.3-21.8c-1.9-4.5-5.5-7.3-10.4-8.5c-4.1-1.1-8.2-0.8-12.3-0.9
			c-1.4,0-1.9,0.5-1.9,2C121.5,221,121.5,226.8,121.5,232.5z"/>
		<path d="M46.9,232.5c0-10.2,0-20.4,0-30.6c0-2.4,0-2.4,2.4-2.4c7.4,0,14.8-0.1,22.2,0c5.1,0.1,10.3,0.5,15,2.9
			c5.3,2.7,8.7,7.1,10,13c0.8,3.4,1,6.9,0.2,10.4c-1.2,5.3-4.1,9.4-8.7,12.3c-4.7,3-10,3.7-15.5,3.9c-2.5,0.1-5.1,0.1-7.6,0
			c-1.4,0-1.8,0.5-1.8,1.9c0.1,6.6,0,13.1,0,19.7c0,2-0.1,2.1-2.1,2.1c-4.1,0-8.2-0.1-12.2,0c-1.5,0-1.9-0.4-1.9-1.9
			C47,253.2,46.9,242.8,46.9,232.5z M63.1,220.7c0,2.3,0,4.6,0,7c0,0.8,0.2,1.3,1.2,1.3c3.1-0.1,6.1,0.1,9.2-0.2
			c4.3-0.3,6.6-2.4,7.2-6.7c0.6-4.6-1.3-9.2-7-9.4c-3-0.1-6-0.1-9-0.2c-1.1,0-1.5,0.5-1.5,1.5C63.1,216.3,63.1,218.5,63.1,220.7z"/>
		<path d="M173.6,232.5c0-10.3,0-20.5,0-30.8c0-2.1,0.1-2.3,2.2-2.3c12.8,0,25.5,0,38.3,0c2.4,0,2.5,0.1,2.5,2.5c0,2.8,0,5.5,0,8.3
			c0,2.2-0.2,2.3-2.4,2.3c-7.4,0-14.7,0-22.1,0c-2.3,0-2.4,0.1-2.4,2.4c0,3.2,0,6.4,0,9.5c0,1.4,0.5,2,2,1.9c5.3-0.1,10.7,0,16-0.1
			c1.5,0,2.1,0.4,2.1,2c-0.1,2.8-0.1,5.6,0,8.4c0,1.5-0.4,2-2,2c-5.4-0.1-10.8,0-16.2-0.1c-1.5,0-1.9,0.5-1.9,1.9
			c0.1,7.5,0,14.9,0,22.4c0,2.4,0,2.4-2.5,2.4c-3.9,0-7.8-0.1-11.7,0c-1.4,0-1.9-0.4-1.9-1.9C173.7,253.2,173.6,242.8,173.6,232.5
			L173.6,232.5z"/>
	</g>
</g>
</svg>
