<?xml version="1.0" encoding="utf-8"?>
<svg version="1.1" xmlns="http://www.w3.org/2000/svg" viewBox="0 0 350 350">
<g>
	<g>
		<g>
			<path d="M25.3,174.8c0-39.8,0-79.6,0-119.3c0-8.2,2.2-15.5,7.8-21.6c3.6-3.9,8-6.5,13.1-7.8c2.8-0.7,5.7-1.1,8.6-1.1
				c29.1-0.1,58.1,0,87.2,0c8.1,0,15.4,2.3,21.2,8.2c3.2,3.2,5.2,7.2,7.2,11.2c3.1,6.4,6.4,12.7,9.5,19.1c0.7,1.4,1.5,1.8,3,1.8
				c35.5,0,71.1,0,106.6,0c3.5,0,7,0.1,10.5,0.3c3.9,0.2,7.6,1.4,10.9,3.5c5.3,3.3,9.3,7.8,11.8,13.5c1.7,4,2,8.4,2,12.7
				c0,64,0,128,0,192c0,4.4,0,8.7-0.4,13.1c-0.6,6.6-3.5,12.2-8.3,16.8c-3.9,3.8-8.7,6.2-14,7.3c-2.4,0.5-4.9,0.5-7.4,0.5
				c-78.5,0-157,0-235.5,0c-2.8,0-5.6-0.1-8.4-0.3c-5.3-0.3-9.9-2.4-14.1-5.5c-3.9-2.8-6.9-6.5-8.8-10.9c-1.9-4.2-2.5-8.8-2.5-13.4
				C25.3,254.9,25.3,214.9,25.3,174.8z M175.1,144.2c-42.9,0-85.8,0-128.7,0c-2.2,0-2.2,0-2.2,2c0,50,0,99.9-0.1,149.9
				c0,5.9,4.4,10,9.8,10c81.1,0,162.2,0,243.4,0c0.7,0,1.4-0.1,2-0.3c3.7-1.2,6.6-4.5,6.6-9.9c-0.1-49.8,0-99.5,0-149.3
				c0-2.4,0-2.4-2.4-2.4C260.7,144.2,217.9,144.2,175.1,144.2z M175,125.4c30.6,0,61.2,0,91.9,0c12.5,0,24.9,0,37.4,0
				c1.2,0,1.8-0.2,1.8-1.6c0-10.3,0-20.6-0.1-30.9c0-1.3-0.4-2.7-1-3.9c-1.9-3.7-5.1-5.1-9.2-5.1c-39.5,0-79,0-118.5,0.1
				c-5.6,0-9-2.2-11.4-7.1c-4.4-9.2-9.1-18.2-13.6-27.3c-2-4-5.1-6.1-9.7-5.9c-2.2,0.1-4.3,0-6.5,0c-27.1,0-54.2,0-81.3,0
				c-1.8,0-3.7,0.2-5.3,1c-3.6,1.7-5.1,4.8-5.1,8.8c0,23.1,0,46.2,0,69.4c0,2.3,0,2.3,2.4,2.3C89.3,125.4,132.1,125.4,175,125.4z"/>
		</g>
	</g>
	<g>
		<path d="M82.7,201.1h34.4v10.3H95V224h18.9v10.3H95v21.2H82.7V201.1z"/>
		<path d="M123.8,201.1h12.3v54.5h-12.3V201.1z"/>
		<path d="M146.3,201.1h12.3v44.2h21.5v10.3h-33.8V201.1z"/>
		<path d="M187,201.1h34.1v10.3h-21.8v10.9h18.6v10.3h-18.6v12.6h22.7v10.3h-35V201.1z"/>
		<path d="M226.6,248.7l7.1-8.5c3.9,3.4,8.9,5.7,13.4,5.7c5.1,0,7.7-2,7.7-5.3c0-3.4-3.1-4.5-7.9-6.5l-7.1-3
			c-5.6-2.3-11-6.9-11-14.9c0-9,8.1-16.2,19.4-16.2c6.3,0,12.8,2.5,17.5,7.1l-6.2,7.8c-3.6-2.8-7-4.3-11.3-4.3c-4.2,0-7,1.8-7,4.9
			c0,3.3,3.6,4.6,8.3,6.4l6.9,2.8c6.7,2.7,10.8,7.1,10.8,14.8c0,9-7.5,16.9-20.5,16.9C239.7,256.6,232.1,253.9,226.6,248.7z"/>
	</g>
</g>
</svg>
