<?xml version="1.0" encoding="utf-8"?>
<!-- Generator: Adobe Illustrator 24.0.1, SVG Export Plug-In . SVG Version: 6.00 Build 0)  -->
<svg version="1.1" id="Layer_1" xmlns="http://www.w3.org/2000/svg" xmlns:xlink="http://www.w3.org/1999/xlink" x="0px" y="0px"
	 viewBox="0 0 350 350" style="enable-background:new 0 0 350 350;" xml:space="preserve">
<style type="text/css">
	.st0{fill:none;}
	.st1{fill:#1E1E1C;}
</style>
<g>
	<g>
		<path class="st0" d="M287.4,65.6c-2.3-1.7-4.4-3.8-7-5.5c-25.3-18.6-61.6-16.6-83.6,5.2c-13.6,13.1-20,29.3-19.7,48.5
			c0.3,29.6-9.9,55.2-30.2,76.1c-15.7,14.2-34.6,22.7-56.1,23.5c-11.3,0.3-20.9,4.4-29.3,11.3c-25.6,21.2-21.8,62.4,7.8,78.1
			c31.1,16.8,69.1-4.6,70.9-40.7c1.2-22.4,9.6-41.2,24.7-56.9c3.2-3.2,7-6.7,10.7-9.3c19.5-13.9,41.2-20.6,65.1-20
			c22.7,0.3,41.2-9.3,54-27.9C312.1,121.9,308.6,86.8,287.4,65.6z M109.4,276.4c-9.3,9.6-24.1,9.6-33.7,0c-9.3-9.3-9.3-24.1,0-33.7
			s24.7-9.6,34.3-0.3C119,251.4,119,266.8,109.4,276.4z M270.9,140.2c-16.6,16.3-43,16.3-59,0c-16.3-16.6-16.3-43,0.3-59
			c16.6-16.3,42.7-16.3,59,0.3C287.1,97.8,287.1,124.5,270.9,140.2z"/>
		<path class="st0" d="M264.8,110.6c-0.3,12.8-10.7,23.2-23.2,23.2c-12.8,0-23.2-10.2-23.2-23.2c0-12.8,10.2-23.2,23.2-23.2
			C254.3,87.3,264.8,97.8,264.8,110.6z"/>
	</g>
	<g>
		<path class="st1" d="M278.1,24.9H72.2c-25.9,0-47,21.1-47,47v205.6c0,25.9,21.1,47,47,47h205.6c26.2,0,47-20.5,47.3-46.8V72
			C325.2,46,304.1,24.9,278.1,24.9z M313.6,277.8c-0.3,19.7-15.9,35.2-35.7,35.2H72.2c-19.5,0-35.4-15.9-35.4-35.4V72
			c0-19.5,15.9-35.4,35.4-35.4h205.9c19.5,0,35.4,15.9,35.4,35.4V277.8z"/>
		<path class="st1" d="M278.1,36.5H72.2c-19.5,0-35.4,15.9-35.4,35.4v205.6c0,19.5,15.9,35.4,35.4,35.4h205.6
			c19.8,0,35.5-15.5,35.7-35.2V72C313.6,52.4,297.7,36.5,278.1,36.5z M294.7,148c-12.8,18.6-31.4,28.2-54,27.9
			c-23.8-0.6-45.6,6.1-65.1,20c-3.8,2.6-7.6,6.1-10.7,9.3c-15.1,15.7-23.5,34.6-24.7,56.9c-1.7,36-39.8,57.5-70.9,40.7
			c-29.6-15.7-33.4-56.9-7.8-78.1c8.4-7,18-11,29.3-11.3c21.5-0.9,40.4-9.3,56.1-23.5c20.3-20.9,30.5-46.5,30.2-76.1
			c-0.3-19.2,6.1-35.4,19.7-48.5c22.1-21.8,58.4-23.8,83.6-5.2c2.6,1.7,4.6,3.8,7,5.5C308.6,86.8,312.1,121.9,294.7,148z"/>
		<path class="st1" d="M271.2,81.5c-16.3-16.6-42.4-16.6-59-0.3c-16.6,16-16.6,42.4-0.3,59c16,16.3,42.4,16.3,59,0
			C287.1,124.5,287.1,97.8,271.2,81.5z M241.6,133.8c-12.8,0-23.2-10.2-23.2-23.2c0-12.8,10.2-23.2,23.2-23.2
			c12.8,0,23.2,10.5,23.2,23.2C264.5,123.4,254,133.8,241.6,133.8z"/>
		<path class="st1" d="M109.4,276.4c-9.3,9.6-24.1,9.6-33.7,0c-9.3-9.3-9.3-24.1,0-33.7s24.7-9.6,34.3-0.3
			C119,251.4,119,266.8,109.4,276.4z"/>
	</g>
</g>
</svg>
