<?xml version="1.0" encoding="utf-8"?>
<!-- Generator: Adobe Illustrator 24.0.1, SVG Export Plug-In . SVG Version: 6.00 Build 0)  -->
<svg version="1.1" id="Layer_1" xmlns="http://www.w3.org/2000/svg" xmlns:xlink="http://www.w3.org/1999/xlink" x="0px" y="0px"
	 viewBox="0 0 600 200" style="enable-background:new 0 0 600 200;" xml:space="preserve">
<style type="text/css">
	.st0{fill:none;}
	.st1{fill:#1D1D1B;}
</style>
<g>
	<path d="M179.3,147.5l-30.4-70.4c-0.3-0.8,0.2-1.6,1.1-1.6h13.2c0.5,0,0.9,0.3,1.1,0.7l21.3,51.1c0.4,1,1.8,1,2.2,0l21.3-51.1
		c0.2-0.4,0.6-0.7,1.1-0.7h12.7c0.8,0,1.4,0.9,1.1,1.6l-30.4,70.4c-0.2,0.4-0.6,0.7-1.1,0.7h-12
		C179.9,148.2,179.5,147.9,179.3,147.5z"/>
	<path d="M266.1,149.5c-7.1,0-13.6-1.6-19.4-4.9c-5.8-3.3-10.4-7.8-13.8-13.6c-3.4-5.8-5.1-12.2-5.1-19.2s1.6-13.4,4.9-19
		c3.3-5.6,7.7-10.1,13.2-13.5s11.7-5.1,18.6-5.1c6.7,0,12.6,1.7,17.9,5.1s9.5,8,12.6,13.7c3.1,5.8,4.6,12.3,4.6,19.5v2.7
		c0,0.6-0.5,1.2-1.2,1.2h-54.9c-0.7,0-1.3,0.7-1.1,1.4c0.7,3.5,2.1,6.7,4.1,9.4c2.2,3.1,5.1,5.6,8.6,7.4c3.5,1.9,7.3,2.8,11.5,2.8
		c3.6,0,7-0.6,10.3-1.7c2.9-1,5.3-2.3,7.3-3.9c0.5-0.4,1.1-0.3,1.5,0.1l7.3,7.2c0.5,0.5,0.5,1.4-0.1,1.8c-3.9,2.8-7.8,5-12,6.4
		C276.5,148.7,271.5,149.5,266.1,149.5z M243.8,105.6h40.3c0.7,0,1.3-0.7,1.1-1.4c-0.7-3.2-2-6-3.8-8.5c-2-2.9-4.5-5.2-7.5-6.9
		c-3-1.7-6.2-2.5-9.9-2.5c-3.6,0-7,0.8-10,2.5s-5.6,3.9-7.6,6.8c-1.8,2.5-3.1,5.4-3.8,8.6C242.5,104.9,243,105.6,243.8,105.6z"/>
	<path d="M347.6,149.5c-7,0-13.4-1.7-19.1-5s-10.2-7.9-13.6-13.6c-3.3-5.7-5-12-5-19c0-7.1,1.7-13.5,5.1-19.2s7.9-10.2,13.6-13.6
		s12-5.1,19.1-5.1c5.4,0,10.7,1,15.8,3.1c4.7,1.9,8.9,4.6,12.4,8.1c0.4,0.4,0.5,1.2,0,1.6l-7.3,8.1c-0.5,0.5-1.3,0.5-1.7,0
		c-2.5-2.6-5.3-4.6-8.4-5.9c-3.4-1.5-7-2.3-10.7-2.3c-4.5,0-8.5,1.1-12.1,3.3c-3.6,2.2-6.4,5.2-8.4,9s-3.1,8-3.1,12.7
		s1,8.9,3.1,12.8c2.1,3.9,5,6.9,8.6,9.1s7.7,3.3,12.1,3.3c3.7,0,7.2-0.7,10.4-2.2c2.9-1.3,5.7-3.2,8.3-5.7c0.5-0.4,1.2-0.4,1.7,0
		l7.1,7.6c0.4,0.5,0.4,1.2,0,1.7c-3.6,3.4-7.7,6.1-12.4,8C358.1,148.4,353,149.5,347.6,149.5z"/>
	<path d="M420.1,149.5c-7,0-12.3-1.6-16-4.9c-3.7-3.2-5.6-8-5.6-14.4V88.6c0-0.6-0.5-1.2-1.2-1.2h-13.1c-0.6,0-1.2-0.5-1.2-1.2v-9.7
		c0-0.6,0.5-1.2,1.2-1.2h13.1c0.6,0,1.2-0.5,1.2-1.2v-9.4c0-0.6,0.5-1.2,1.2-1.2h11.8c0.6,0,1.2,0.5,1.2,1.2v9.4
		c0,0.6,0.5,1.2,1.2,1.2H433c0.6,0,1.2,0.5,1.2,1.2v9.7c0,0.6-0.5,1.2-1.2,1.2h-19.2c-0.6,0-1.2,0.5-1.2,1.2V127
		c0,3.6,0.8,6.2,2.5,7.8s4.4,2.4,8.2,2.4c2,0,3.8-0.1,5.4-0.4c1.1-0.2,2.3-0.5,3.6-0.9c0.8-0.2,1.5,0.3,1.5,1.1v9.6
		c0,0.5-0.3,1-0.8,1.1c-1.7,0.5-3.7,0.9-5.8,1.2C424.6,149.3,422.2,149.5,420.1,149.5z"/>
	<path d="M477.9,149.6c-7,0-13.5-1.6-19.2-4.9c-5.8-3.3-10.3-7.8-13.7-13.6c-3.4-5.8-5.1-12.2-5.1-19.2c0-7.1,1.7-13.5,5-19.2
		s7.9-10.2,13.7-13.6c5.8-3.4,12.2-5.1,19.3-5.1s13.5,1.7,19.2,5.1c5.8,3.4,10.3,7.9,13.6,13.6s5,12.1,5,19.2c0,7-1.7,13.5-5,19.2
		c-3.3,5.8-7.9,10.3-13.6,13.6C491.4,148,485,149.6,477.9,149.6z M478.1,137c4.4,0,8.4-1.1,12-3.4c3.6-2.2,6.5-5.3,8.6-9.1
		s3.1-8.1,3.1-12.9c0-4.7-1-8.9-3.1-12.6c-2.1-3.8-5-6.8-8.6-9.1c-3.6-2.3-7.7-3.4-12.1-3.4s-8.4,1.1-12.1,3.4s-6.6,5.3-8.6,9.1
		c-2.1,3.8-3.1,8-3.1,12.6c0,4.8,1,9,3.1,12.9c2.1,3.8,5,6.8,8.6,9.1C469.5,135.9,473.6,137,478.1,137z"/>
	<path d="M529.3,147V76.5c0-0.6,0.5-1.2,1.2-1.2h12c0.6,0,1.2,0.5,1.2,1.2v4.8c0,1.1,1.3,1.6,2.1,0.7c1.9-2.2,4-3.9,6.4-5.3
		c3.4-1.9,7.2-2.9,11.5-2.9c2.6,0,4.7,0.3,6.5,0.9c0.5,0.2,0.8,0.6,0.8,1.1v10.4c0,0.8-0.8,1.4-1.5,1.1c-0.9-0.3-1.8-0.5-2.7-0.7
		c-1.4-0.2-2.9-0.4-4.4-0.4c-4.1,0-7.8,1.1-11,3.4c-3.2,2.2-5.7,5.4-7.6,9.5c-0.1,0.2-0.1,0.3-0.1,0.5V147c0,0.6-0.5,1.2-1.2,1.2
		h-12C529.9,148.2,529.3,147.7,529.3,147z"/>
</g>
<g>
	<g>
		<path class="st0" d="M117.4,62.4c-0.8-0.6-1.5-1.3-2.4-1.9c-8.7-6.4-21.2-5.7-28.8,1.8c-4.7,4.5-6.9,10.1-6.8,16.7
			C79.5,89.2,76,98,69,105.2c-5.4,4.9-11.9,7.8-19.3,8.1c-3.9,0.1-7.2,1.5-10.1,3.9c-8.8,7.3-7.5,21.5,2.7,26.9
			c10.7,5.8,23.8-1.6,24.4-14c0.4-7.7,3.3-14.2,8.5-19.6c1.1-1.1,2.4-2.3,3.7-3.2c6.7-4.8,14.2-7.1,22.4-6.9
			c7.8,0.1,14.2-3.2,18.6-9.6C125.9,81.8,124.7,69.7,117.4,62.4z M56.1,135c-3.2,3.3-8.3,3.3-11.6,0c-3.2-3.2-3.2-8.3,0-11.6
			s8.5-3.3,11.8-0.1C59.4,126.4,59.4,131.7,56.1,135z M111.7,88.1c-5.7,5.6-14.8,5.6-20.3,0c-5.6-5.7-5.6-14.8,0.1-20.3
			c5.7-5.6,14.7-5.6,20.3,0.1C117.3,73.5,117.3,82.7,111.7,88.1z"/>
		<path class="st0" d="M109.6,77.9c-0.1,4.4-3.7,8-8,8c-4.4,0-8-3.5-8-8c0-4.4,3.5-8,8-8C106,69.9,109.6,73.5,109.6,77.9z"/>
	</g>
	<g>
		<path class="st1" d="M114.2,48.4H43.3c-8.9,0-16.2,7.3-16.2,16.2v70.8c0,8.9,7.3,16.2,16.2,16.2h70.8c9,0,16.2-7.1,16.3-16.1V64.6
			C130.4,55.7,123.1,48.4,114.2,48.4z M126.4,135.5c-0.1,6.8-5.5,12.1-12.3,12.1H43.3c-6.7,0-12.2-5.5-12.2-12.2V64.6
			c0-6.7,5.5-12.2,12.2-12.2h70.9c6.7,0,12.2,5.5,12.2,12.2V135.5z"/>
		<path class="st1" d="M114.2,52.4H43.3c-6.7,0-12.2,5.5-12.2,12.2v70.8c0,6.7,5.5,12.2,12.2,12.2h70.8c6.8,0,12.2-5.3,12.3-12.1
			V64.6C126.4,57.9,120.9,52.4,114.2,52.4z M119.9,90.8c-4.4,6.4-10.8,9.7-18.6,9.6c-8.2-0.2-15.7,2.1-22.4,6.9
			c-1.3,0.9-2.6,2.1-3.7,3.2c-5.2,5.4-8.1,11.9-8.5,19.6c-0.6,12.4-13.7,19.8-24.4,14c-10.2-5.4-11.5-19.6-2.7-26.9
			c2.9-2.4,6.2-3.8,10.1-3.9c7.4-0.3,13.9-3.2,19.3-8.1c7-7.2,10.5-16,10.4-26.2c-0.1-6.6,2.1-12.2,6.8-16.7
			c7.6-7.5,20.1-8.2,28.8-1.8c0.9,0.6,1.6,1.3,2.4,1.9C124.7,69.7,125.9,81.8,119.9,90.8z"/>
		<path class="st1" d="M111.8,67.9c-5.6-5.7-14.6-5.7-20.3-0.1c-5.7,5.5-5.7,14.6-0.1,20.3c5.5,5.6,14.6,5.6,20.3,0
			C117.3,82.7,117.3,73.5,111.8,67.9z M101.6,85.9c-4.4,0-8-3.5-8-8c0-4.4,3.5-8,8-8c4.4,0,8,3.6,8,8
			C109.5,82.3,105.9,85.9,101.6,85.9z"/>
		<path class="st1" d="M56.1,135c-3.2,3.3-8.3,3.3-11.6,0c-3.2-3.2-3.2-8.3,0-11.6s8.5-3.3,11.8-0.1C59.4,126.4,59.4,131.7,56.1,135
			z"/>
	</g>
</g>
</svg>
