<?xml version="1.0" encoding="utf-8"?>
<!-- Generator: Adobe Illustrator 24.0.1, SVG Export Plug-In . SVG Version: 6.00 Build 0)  -->
<svg version="1.1" id="Layer_1" xmlns="http://www.w3.org/2000/svg" xmlns:xlink="http://www.w3.org/1999/xlink" x="0px" y="0px"
	 viewBox="0 0 350 350" style="enable-background:new 0 0 350 350;" xml:space="preserve">
<g>
	<g>
		<g>
			<g>
				<path d="M266.5,254.4c2.9,0,5.5,1.1,7.5,2.8v-14.1c0-4.2-3.4-7.5-7.5-7.5h0c-4.2,0-7.5,3.4-7.5,7.5v14.1
					C261,255.5,263.6,254.4,266.5,254.4z"/>
				<path d="M266.5,277.6c-2.9,0-5.5-1.1-7.5-2.8V289c0,4.2,3.4,7.5,7.5,7.5h0c4.2,0,7.5-3.4,7.5-7.5v-14.1
					C272,276.6,269.4,277.6,266.5,277.6z"/>
			</g>
			<g>
				<path d="M289.5,258.5h-14.2c1.8,2,2.8,4.7,2.8,7.6c0,2.9-1,5.5-2.7,7.5h14.1c4.2,0,7.5-3.4,7.5-7.5l0,0
					C297,261.8,293.6,258.5,289.5,258.5z"/>
				<path d="M255,266.1c0-2.9,1.1-5.6,2.8-7.6h-14.2c-4.2,0-7.5,3.4-7.5,7.5l0,0c0,4.2,3.4,7.5,7.5,7.5h14.1
					C256,271.5,255,268.9,255,266.1z"/>
			</g>
		</g>
		<g>
			<g>
				<path d="M84.8,254.4c2.9,0,5.5,1.1,7.5,2.8V243c0-4.2-3.4-7.5-7.5-7.5h0c-4.2,0-7.5,3.4-7.5,7.5v14.1
					C79.3,255.5,82,254.4,84.8,254.4z"/>
				<path d="M84.8,277.6c-2.9,0-5.5-1.1-7.5-2.8V289c0,4.2,3.4,7.5,7.5,7.5h0c4.2,0,7.5-3.4,7.5-7.5v-14.1
					C90.4,276.6,87.7,277.6,84.8,277.6z"/>
			</g>
			<g>
				<path d="M107.8,258.5H93.6c1.8,2,2.8,4.7,2.8,7.6c0,2.9-1,5.5-2.7,7.5h14.1c4.2,0,7.5-3.4,7.5-7.5l0,0
					C115.3,261.8,112,258.5,107.8,258.5z"/>
				<path d="M73.3,266.1c0-2.9,1.1-5.6,2.8-7.6H61.9c-4.2,0-7.5,3.4-7.5,7.5l0,0c0,4.2,3.4,7.5,7.5,7.5H76
					C74.3,271.5,73.3,268.9,73.3,266.1z"/>
			</g>
		</g>
	</g>
	<g>
		<g>
			<path d="M266.5,72.7c2.9,0,5.5,1.1,7.5,2.8V61.4c0-4.2-3.4-7.5-7.5-7.5h0c-4.2,0-7.5,3.4-7.5,7.5v14.1
				C261,73.8,263.6,72.7,266.5,72.7z"/>
			<path d="M266.5,95.9c-2.9,0-5.5-1.1-7.5-2.8v14.1c0,4.2,3.4,7.5,7.5,7.5h0c4.2,0,7.5-3.4,7.5-7.5V93.1
				C272,94.9,269.4,95.9,266.5,95.9z"/>
		</g>
		<g>
			<path d="M289.5,76.8h-14.2c1.8,2,2.8,4.7,2.8,7.6c0,2.9-1,5.5-2.7,7.5h14.1c4.2,0,7.5-3.4,7.5-7.5v0
				C297,80.2,293.6,76.8,289.5,76.8z"/>
			<path d="M255,84.4c0-2.9,1.1-5.6,2.8-7.6h-14.2c-4.2,0-7.5,3.4-7.5,7.5v0c0,4.2,3.4,7.5,7.5,7.5h14.1C256,89.9,255,87.2,255,84.4
				z"/>
		</g>
	</g>
	<g>
		<g>
			<path d="M84.8,72.7c2.9,0,5.5,1.1,7.5,2.8V61.4c0-4.2-3.4-7.5-7.5-7.5h0c-4.2,0-7.5,3.4-7.5,7.5v14.1
				C79.3,73.8,82,72.7,84.8,72.7z"/>
			<path d="M84.8,95.9c-2.9,0-5.5-1.1-7.5-2.8v14.1c0,4.2,3.4,7.5,7.5,7.5h0c4.2,0,7.5-3.4,7.5-7.5V93.1
				C90.4,94.9,87.7,95.9,84.8,95.9z"/>
		</g>
		<g>
			<path d="M107.8,76.8H93.6c1.8,2,2.8,4.7,2.8,7.6c0,2.9-1,5.5-2.7,7.5h14.1c4.2,0,7.5-3.4,7.5-7.5v0
				C115.3,80.2,112,76.8,107.8,76.8z"/>
			<path d="M73.3,84.4c0-2.9,1.1-5.6,2.8-7.6H61.9c-4.2,0-7.5,3.4-7.5,7.5v0c0,4.2,3.4,7.5,7.5,7.5H76
				C74.3,89.8,73.3,87.2,73.3,84.4z"/>
		</g>
	</g>
</g>
<g>
	<g>
		<path d="M200.6,149.4L200.6,149.4c3.6,3.6,3.6,9.5,0,13.1l-38.1,38.1c-3.6,3.6-9.5,3.6-13.1,0l0,0c-3.6-3.6-3.6-9.5,0-13.1
			l38.1-38.1C191.1,145.8,197,145.8,200.6,149.4z"/>
		<path d="M194,146.7L194,146.7c5.1,0,9.2,4.1,9.2,9.2l0,32.7c0,5.1-4.1,9.2-9.2,9.2h0c-5.1,0-9.2-4.1-9.2-9.2l0-32.7
			C184.8,150.8,188.9,146.7,194,146.7z"/>
		<path d="M203.3,155.9L203.3,155.9c0,5.1-4.1,9.2-9.2,9.2l-32.7,0c-5.1,0-9.2-4.1-9.2-9.2v0c0-5.1,4.1-9.2,9.2-9.2l32.7,0
			C199.2,146.7,203.3,150.8,203.3,155.9z"/>
	</g>
	<g>
		<g>
			<path d="M175,117.3c14.3,0,27.4,5.2,37.5,13.9V60.9c0-20.7-16.8-37.5-37.5-37.5h0c-20.7,0-37.5,16.8-37.5,37.5v70.3
				C147.6,122.6,160.7,117.3,175,117.3z"/>
			<path d="M175,232.7c-14.3,0-27.4-5.2-37.5-13.9v70.3c0,20.7,16.8,37.5,37.5,37.5h0c20.7,0,37.5-16.8,37.5-37.5v-70.3
				C202.4,227.4,189.3,232.7,175,232.7z"/>
		</g>
		<g>
			<path d="M289.1,137.5h-70.4c8.8,10.1,14.1,23.3,14.1,37.8c0,14.2-5.1,27.2-13.6,37.2h69.9c20.7,0,37.5-16.8,37.5-37.5v0
				C326.6,154.3,309.9,137.5,289.1,137.5z"/>
			<path d="M117.5,175.3c0-14.5,5.3-27.7,14.1-37.8H60.9c-20.7,0-37.5,16.8-37.5,37.5v0c0,20.7,16.8,37.5,37.5,37.5h70.3
				C122.6,202.5,117.5,189.5,117.5,175.3z"/>
		</g>
	</g>
</g>
</svg>
