<?xml version="1.0" encoding="utf-8"?>
<!-- Generator: Adobe Illustrator 24.0.1, SVG Export Plug-In . SVG Version: 6.00 Build 0)  -->
<svg version="1.1" id="Layer_1" xmlns="http://www.w3.org/2000/svg" xmlns:xlink="http://www.w3.org/1999/xlink" x="0px" y="0px"
	 viewBox="0 0 350 350" style="enable-background:new 0 0 350 350;" xml:space="preserve">
<g id="M0r3f1.tif">
	<g>
		<path d="M97.4,236.2c2.5,2.5,5,4.9,7.5,7.4c3.4,3.4,7,6.8,10.3,10.4c2.5,2.6,3.8,5.9,4.5,9.5c0.4,2.4,0.6,4.7,0.1,7.1
			c-1,5.3-3.7,9.6-8,12.8c-7.3,5.4-18.3,5.2-25.4-1.6c-5.9-5.7-11.7-11.6-17.5-17.4c-13.2-13.2-26.4-26.4-39.6-39.7
			c-3.1-3.1-4.7-6.8-4.2-11.2c0.4-3.4,2.1-6.2,4.5-8.6c7-7,13.9-14,20.9-21c11.3-11.3,22.6-22.6,33.9-33.9c2.9-2.9,6.2-5,10.2-5.7
			c6.7-1.2,12.8,0.1,17.9,4.9c5.2,4.9,7.1,11,6.2,18c-0.6,4.5-2.9,8.3-6.1,11.6c-5,5-10.1,10.1-15.1,15.1c-0.3,0.3-0.6,0.6-1.1,1.2
			c0.7,0.1,1.2,0.2,1.7,0.2c5.5,0,10.9,0,16.4,0c40.9,0,81.8,0,122.8,0c1.9,0,3.9,0,5.8-0.1c6-0.4,11.7-2,17-4.7
			c5.5-2.7,10.2-6.4,14.3-11c4.4-5,7.4-10.7,9.4-17c2.2-7.1,2.5-14.4,1.1-21.8c-1.7-9-5.7-16.8-12-23.4c-3.8-4-8.2-7.3-13.2-9.7
			c-3.4-1.6-6.8-3-10.4-3.6c-3.5-0.6-7-0.9-10.6-0.9c-36.6-0.1-73.2,0-109.8,0c-2.9,0-5.7-0.4-8-2.5c-1.8-1.6-3.1-3.6-3.2-6
			c-0.2-4.4-0.2-8.7-0.2-13.1c0-3.2-0.1-6.4,0.1-9.6c0.2-3.7,2.2-6.3,5.4-8c1.6-0.9,3.4-1.2,5.2-1.2c37.1,0,74.2-0.1,111.3,0.1
			c5.1,0,10.3,0.8,15.3,1.7c4.3,0.7,8.5,1.9,12.6,3.2c6.5,2.2,12.5,5.3,18.2,9c8.5,5.6,15.9,12.3,22,20.5c3.7,4.9,7,10.1,9.4,15.7
			c1.8,4.4,3.5,8.8,4.8,13.4c2.7,8.9,3.7,18.1,3.1,27.4c-0.3,4.1-0.8,8.3-1.7,12.4c-0.8,4.2-1.9,8.4-3.4,12.4
			c-1.6,4.3-3.4,8.5-5.6,12.6c-6.4,12.1-15.5,21.8-26.7,29.6c-5.1,3.6-10.6,6.5-16.4,8.9c-7.7,3.2-15.7,5.1-23.9,5.8
			c-3.5,0.3-7.1,0.5-10.6,0.5c-45.7,0-91.4,0-137,0c-0.7,0-1.3,0-2,0C97.5,236,97.5,236.1,97.4,236.2z"/>
	</g>
</g>
</svg>
