<?xml version="1.0" encoding="utf-8"?>
<!-- Generator: Adobe Illustrator 24.0.1, SVG Export Plug-In . SVG Version: 6.00 Build 0)  -->
<svg version="1.1" id="Layer_1" xmlns="http://www.w3.org/2000/svg" xmlns:xlink="http://www.w3.org/1999/xlink" x="0px" y="0px"
	 viewBox="0 0 350 350" style="enable-background:new 0 0 350 350;" xml:space="preserve">
<g id="_x37_sUAA8.tif">
	<g>
		<path d="M280.5,184.4c0,43.1,0,86.2,0,129.2c0,1.9-0.1,3.8-0.6,5.6c-1.5,4.7-7.7,7.7-13.4,4.2c-8.8-5.6-17.6-11-26.4-16.4
			c-17.2-10.7-34.3-21.3-51.5-32c-4.2-2.6-8.4-5.2-12.6-7.8c-0.8-0.5-1.3-0.5-2.1,0c-15,9.4-30,18.7-45.1,28
			c-15.1,9.4-30.3,18.8-45.4,28.3c-5.6,3.5-11.8,0.5-13.4-4.2c-0.5-1.5-0.6-3.2-0.6-4.9c0-23,0-46.1,0-69.1c0-62.3,0-124.6,0-186.8
			c0-4.5,0.5-8.9,2.2-13.1c2.7-6.7,7.1-11.8,13.2-15.6c5.2-3.3,11-4.6,17.1-4.6c48.8,0,97.6,0,146.4,0c11.2,0,20.3,4.7,26.7,14
			c4.2,6,5.6,12.8,5.6,20c0,26.4,0,52.8,0,79.2C280.5,153.6,280.5,169,280.5,184.4z M262.9,300.1c0-1.2,0-2,0-2.7
			c0-79.4,0-158.9,0-238.3c0-0.7,0-1.4,0-2c-0.3-8.6-6.2-14.3-14.7-14.3c-48.7,0-97.3,0-146,0c-1.5,0-3.1,0.3-4.6,0.6
			c-6.3,1.2-10.5,7.1-10.5,13.3c0,26.3,0,52.6,0,78.9c0,54.1,0,108.1,0,162.2c0,0.7,0.1,1.4,0.1,2.4c1-0.6,1.7-1,2.4-1.4
			c12.4-7.7,24.9-15.4,37.3-23.1c14.2-8.8,28.3-17.5,42.5-26.4c3.8-2.4,7.4-2.4,11.1,0c13.4,8.4,26.9,16.7,40.4,25.1
			c13.2,8.2,26.3,16.4,39.5,24.5C261.1,299.1,261.8,299.5,262.9,300.1z"/>
	</g>
</g>
</svg>
