<?xml version="1.0" encoding="utf-8"?>
<!-- Generator: Adobe Illustrator 24.0.1, SVG Export Plug-In . SVG Version: 6.00 Build 0)  -->
<svg version="1.1" id="Layer_1" xmlns="http://www.w3.org/2000/svg" xmlns:xlink="http://www.w3.org/1999/xlink" x="0px" y="0px"
	 viewBox="0 0 350 350" style="enable-background:new 0 0 350 350;" xml:space="preserve">
<style type="text/css">
	.st0{fill:#1D1D1B;}
</style>
<g>
	<path class="st0" d="M84.6,233.2c-8.4,8.5-8.4,22.3,0.1,30.8s22.3,8.7,30.7,0.1c8.7-8.7,8.8-22.6,0.3-31.1
		C107.2,224.7,93.1,224.7,84.6,233.2z"/>
	<path class="st0" d="M277.9,24H72.1C46.1,24,25,45.1,25,71.1v205.7c0,26,21.1,47.1,47.1,47.1h205.7c26,0,47.1-21.1,47.1-47.1V71.1
		C325,45.1,303.9,24,277.9,24z M283.2,146.9c-11.8,16.9-28.3,25.6-49,25.2c-21.8-0.4-41.4,5.7-59,18.4c-3.5,2.5-6.7,5.3-9.8,8.2
		c-13.6,14.4-21.3,31.5-22.2,51.6c-1.6,32.6-35.9,52.4-64.3,37c-26.7-14.2-30.2-51.8-7-71.1c7.7-6.4,16.5-10.1,26.5-10.4
		c19.8-0.8,36.5-8.2,50.9-21.4c18.3-19.1,27.8-42.1,27.4-68.9c-0.2-17.3,5.7-31.9,18-44c20-19.6,53.1-21.6,75.9-4.5
		c2.2,1.6,4.2,3.4,6.3,5.1C296.3,91.7,299.3,123.8,283.2,146.9z"/>
	<path class="st0" d="M208.7,86.8c-14.9,14.8-15,38.8-0.3,53.6c14.6,14.7,38.8,14.7,53.7,0c14.6-14.4,14.8-38.7,0.5-53.2
		C247.5,72.1,223.6,71.9,208.7,86.8z M235.3,134.5c-11.5,0-20.9-9.3-20.9-20.9s9.3-20.9,20.9-20.9c11.5,0,20.9,9.3,20.9,20.9
		S246.8,134.5,235.3,134.5z"/>
</g>
</svg>
