<?xml version="1.0" encoding="utf-8"?>
<!-- Generator: Adobe Illustrator 24.0.1, SVG Export Plug-In . SVG Version: 6.00 Build 0)  -->
<svg version="1.1" id="Layer_1" xmlns="http://www.w3.org/2000/svg" xmlns:xlink="http://www.w3.org/1999/xlink" x="0px" y="0px"
	 viewBox="0 0 350 350" style="enable-background:new 0 0 350 350;" xml:space="preserve">
<g id="n7VX7s.tif">
	<g>
		<path d="M141.3,162c-0.1,1.1-0.2,1.9-0.2,2.6c0,15.6,0,31.3,0,46.9c0,4.1-1,7.8-3.5,11.1c-6.3,8.1-19.3,7.1-24-2.8
			c-1.1-2.3-1.5-5-1.6-7.6c-0.1-21.9-0.1-43.8,0-65.7c0.1-12.5,5.4-22.2,15.8-29.2c5.8-3.9,12.3-5.2,19.1-5.2c21.5-0.1,43,0,64.5,0
			c5.5,0,10.3,1.6,13.7,6.3c5.7,8,2.5,19.1-7.9,22.4c-1.6,0.5-3.5,0.4-5.2,0.4c-15.7,0-31.4,0-47.1,0c-0.7,0-1.4,0-2.1,0
			c-0.1,0.2-0.2,0.3-0.3,0.5c0.5,0.6,0.9,1.3,1.5,1.9c11.7,11.7,23.4,23.4,35.2,35.1c19,19,37.9,38,56.9,57c6.1,6,13.6,8.3,21.9,6.2
			c9.9-2.5,16.9-10.8,17.5-21.2c0-0.7,0-1.5,0-2.2c0-43.1,0-86.2,0-129.4c0-11.2-4.2-20.6-13.2-27.7c-6.1-4.8-13-7.1-20.7-7.1
			c-57.7,0-115.5-0.1-173.2,0c-13.2,0-23.2,6.2-29.8,17.5c-2.8,4.7-4.2,9.9-4.2,15.4c0,58.2,0,116.4,0,174.6
			c0,13.2,6,23.2,17.3,29.9c4.7,2.8,9.9,4.2,15.4,4.2c40.2,0,80.3,0,120.5,0c5.2,0,9.4,1.8,12.4,5.8c6.1,8.1,2.7,18.4-6.4,22.3
			c-1.9,0.8-4.2,1.1-6.3,1.1c-39.6,0.1-79.2,0-118.8,0c-6.6,0-13.1-0.9-19.3-2.9c-12.4-4-22.7-11.2-30.8-21.5
			c-4.7-6-8.1-12.7-10.4-19.9c-2-6.4-2.8-13-2.9-19.7c0-57.6,0-115.1,0-172.7c0-6.5,0.9-13,2.9-19.1c4.8-14.9,14-26.6,27.4-34.8
			c10.5-6.5,22-9.4,34.3-9.4c55.3,0.1,110.6,0,165.9,0.1c5.6,0,11.2,0.3,16.7,1c3.7,0.5,7.3,1.7,10.8,2.9c8.4,2.9,15.6,7.7,22,13.8
			c6.1,5.8,10.7,12.5,14,20.3c3.9,9,5.4,18.4,5.4,28.1c0,42,0,84,0,125.9c0,6.4-0.7,12.8-2.8,18.8c-3.5,10-9.4,18.4-17.8,25
			c-9.2,7.1-19.6,10.6-31.1,10.9c-4.8,0.1-9.6-0.7-14.3-2c-6.6-1.8-12.7-4.6-18-8.9c-4.1-3.5-7.9-7.3-11.7-11.1
			c-26-26-52-52.1-78-78.2c-2.7-2.7-5.4-5.4-8-8.1C142.5,163,142.1,162.6,141.3,162z"/>
	</g>
</g>
</svg>
