<?xml version="1.0" encoding="utf-8"?>
<!-- Generator: Adobe Illustrator 24.0.1, SVG Export Plug-In . SVG Version: 6.00 Build 0)  -->
<svg version="1.1" id="Layer_1" xmlns="http://www.w3.org/2000/svg" xmlns:xlink="http://www.w3.org/1999/xlink" x="0px" y="0px"
	 viewBox="0 0 350 350" style="enable-background:new 0 0 350 350;" xml:space="preserve">
<g id="_x34_bJymE.tif">
	<g>
		<path d="M174.9,325c-30.3,0-60.6,0-91,0c-6.3,0-12.7-0.6-18.8-2.6c-11.7-3.7-21.3-10.4-28.7-20.3c-3.8-5.1-6.6-10.7-8.5-16.7
			c-1.8-5.7-2.6-11.5-2.6-17.5c-0.1-12-0.1-23.9,0-35.9c0.1-8.4,3.9-14.6,11.5-18.2c3.6-1.7,7.6-1.8,11.5-0.9
			c6.4,1.4,10.6,5.5,13.2,11.3c1.1,2.5,1.4,5.2,1.4,7.9c0,11.8,0,23.6,0,35.4c0,3.5,0.7,6.8,2.4,9.9c3.6,6.5,9.3,9.3,16.4,9.9
			c0.4,0,0.8,0,1.3,0c61.4,0,122.8,0,184.1,0c5.3,0,10.2-1.5,14.1-5.2c3.4-3.2,5.4-7.2,5.8-11.8c0.1-1.1,0.1-2.2,0.1-3.3
			c0-11.6,0.1-23.2,0-34.8c-0.1-6.9,2.6-12.3,8-16.4c4.5-3.4,9.8-4,15.2-2.8c5.8,1.2,9.7,4.9,12.4,10c1.4,2.7,2,5.6,2,8.6
			c0.1,12.3,0.1,24.7,0,37c-0.1,9.5-2.3,18.5-6.9,26.9c-3.9,7.1-9.1,13.1-15.6,18.1c-7,5.3-14.9,8.6-23.4,10.3
			c-4,0.8-8.1,1.1-12.2,1.1C236.1,325,205.5,325,174.9,325z"/>
		<path d="M156.3,161.5c0-23.9,0-47.7,0-71.6c0-0.6-0.2-1.2-0.3-1.8c-0.6,0.3-1.2,0.5-1.7,0.9c-7.2,6.8-14.3,13.6-21.5,20.4
			c-2.5,2.4-5.2,4.6-8.7,5.2c-2.4,0.5-5.1,0.7-7.5,0.4c-5.8-0.8-10.4-3.7-13.5-8.7c-4.7-7.7-3.2-17.6,3.8-24.2
			c17-15.9,34-31.9,50.9-47.9c2.8-2.7,5.6-5.3,9-7.1c4.4-2.4,9-2.9,13.7-1.2c4.4,1.6,7.8,4.7,11.2,7.8c17,16.1,34.1,32.2,51.2,48.2
			c5.1,4.8,7.6,10.7,6.5,17.7c-0.9,5.5-3.8,9.8-8.6,12.7c-3.2,2-6.7,3-10.5,2.9c-5.1-0.2-9.4-2.3-13-5.8
			c-7.1-6.8-14.2-13.5-21.4-20.3c-0.3-0.3-0.7-0.7-1-1c-0.6-0.4-1.1-0.3-1.2,0.6c0,0.5,0,1.1,0,1.6c0,46.3,0,92.6,0,138.9
			c0,3.8-0.3,7.6-2.4,11c-3.8,6-9,9.3-16.3,9.5c-7.9,0.1-14.6-5.2-17.3-11.5c-1.2-2.8-1.4-5.9-1.4-9
			C156.3,206.7,156.3,184.1,156.3,161.5z"/>
	</g>
</g>
</svg>
