<?xml version="1.0" encoding="utf-8"?>
<!-- Generator: Adobe Illustrator 24.0.1, SVG Export Plug-In . SVG Version: 6.00 Build 0)  -->
<svg version="1.1" id="Layer_1" xmlns="http://www.w3.org/2000/svg" xmlns:xlink="http://www.w3.org/1999/xlink" x="0px" y="0px"
	 viewBox="0 0 350 350" style="enable-background:new 0 0 350 350;" xml:space="preserve">
<g id="RY6XQ6.tif">
	<g>
		<path d="M175.2,81.4c5.9,0.4,11.8,0.6,17.7,1.4c5.6,0.8,11.2,2,16.8,3.3c5.2,1.2,10.3,2.6,15.3,4.5c7.1,2.7,14,5.8,20.8,8.9
			c9.3,4.2,18,9.5,26.4,15.1c10.3,6.9,20.2,14.4,29.5,22.7c4.8,4.3,9.6,8.7,14.2,13.2c3.2,3.2,5.3,7.2,6.9,11.5
			c2.1,5.7,2.8,11.7,2,17.7c-0.7,6.1-2.9,11.8-6.6,16.8c-3.8,5.2-8.6,9.4-13.4,13.6c-5.3,4.7-10.8,9.2-16.4,13.6
			c-9.6,7.7-20,14.5-30.7,20.6c-5.6,3.2-11.5,6.1-17.4,8.8c-5.5,2.5-11.1,4.8-16.7,6.8c-4.3,1.5-8.7,2.7-13.1,3.8
			c-4.7,1.2-9.5,2.3-14.3,3.1c-5.3,0.8-10.7,1.5-16,1.7c-6.2,0.2-12.4-0.1-18.5-0.6c-5.4-0.5-10.8-1.5-16.1-2.6
			c-5-1-9.9-2.3-14.8-3.8c-3.5-1-6.8-2.3-10.2-3.7c-3.8-1.5-7.7-3-11.4-4.8c-7.3-3.7-14.7-7.5-21.8-11.6c-5.6-3.2-11-6.8-16.3-10.5
			c-5.4-3.8-10.5-7.9-15.7-12.1c-7.6-6.1-14.9-12.6-21.6-19.7c-3-3.2-4.9-7.1-6.5-11.1c-2.2-5.8-2.7-11.9-2-18
			c0.6-5.2,2.4-10.2,5.2-14.7c3.6-5.6,8.4-10.1,13.3-14.3c6.4-5.5,12.8-11.1,19.5-16.2c8-6.1,16.2-12,25-16.9
			c7.4-4,14.8-8,22.3-11.7c4.2-2.1,8.7-3.6,13.1-5.3c4.1-1.5,8.3-2.9,12.5-4c4.7-1.2,9.4-2.2,14.2-3.2c8-1.7,16.1-2.1,24.3-2.3
			c0.1,0,0.3,0,0.4,0C175.1,81.5,175.2,81.4,175.2,81.4z M175,128c-24.9,0.1-45.2,20.1-45.2,45.1c0.1,25.4,20.2,45.4,45.2,45.3
			c25.1-0.1,45.2-20.1,45.1-45.2C220,147.8,200,128.3,175,128z"/>
		<path d="M175,188.2c-7.9,0.6-15.4-6.7-15.1-15.6c0.2-7.8,6.9-14.4,15.1-14.5c8.4,0,15,6.7,15.1,15.1
			C190.2,181.4,182.8,188.8,175,188.2z"/>
	</g>
</g>
</svg>
